# xmcd CD database file
#
# Track frame offsets:
#	150
#	43916
#	104826
#	115680
#	158468
#	185958
#	256983
#	325189
#
# Disc length: 4532 seconds
#
# Revision: 0
# Processed by: cddbd v1.5.2PL0 Copyright (c) Steve Scherf et al.
# Submitted via: CDex 1.51
#
DISCID=6e11b208
DTITLE=Burnt Sugar the Arkestra Chamber - Making Love to the Dark Ages
DYEAR=2009
DGENRE=Jazz
TTITLE0=Chains and Water A
TTITLE1=Chains and Water B
TTITLE2=Chains and Water C
TTITLE3=Thorazine/81
TTITLE4=Love To Tical
TTITLE5=Dominata (the gabri ballad)
TTITLE6=Making Love To The Dark Ages A
TTITLE7=Making Love To The Dark Ages B
EXTD=YEAR: 2009
EXTT0=
EXTT1=
EXTT2=
EXTT3=
EXTT4=
EXTT5=
EXTT6=
EXTT7=
PLAYORDER=
